<svg width="255" height="143" viewBox="0 0 255 143" fill="none" xmlns="http://www.w3.org/2000/svg">
<g clip-path="url(#clip0_3_31)">
<path d="M25.0466 102.666H18.1187V93.3378C18.1187 91.4285 17.4653 89.8215 16.1586 88.5208C14.8519 87.224 13.2384 86.5717 11.3142 86.5717H6.93195V102.666H0V62.1324H6.92796V79.6584H11.3102C13.2344 79.6584 14.8519 79.01 16.1546 77.7133C17.4613 76.4125 18.1147 74.8095 18.1147 72.8962V62.1364H25.0426V72.8843C25.0426 76.9774 23.5049 80.3903 20.4253 83.119C23.5049 85.8477 25.0426 89.2607 25.0426 93.3577V102.674L25.0466 102.666Z" fill="#0630B8"/>
<path d="M61.6385 102.666H54.2684L52.8143 98.664C50.0773 101.878 46.5875 103.481 42.3406 103.481C38.5082 103.481 35.2653 102.149 32.612 99.4835C29.9588 96.8184 28.6361 93.5924 28.6361 89.8016C28.6361 86.8979 29.4568 84.2726 31.0981 81.9336C32.7395 79.5947 34.9306 77.9281 37.6676 76.9376C39.277 76.3568 40.8467 76.0665 42.3885 76.0665C45.2967 76.0665 47.9221 76.8938 50.2646 78.5526C52.6071 80.2113 54.2763 82.407 55.2683 85.1397L61.6346 102.666H61.6385ZM49.165 89.7778C49.165 87.3792 48.189 85.5096 46.2369 84.1731C45.1094 83.3855 43.8067 82.9917 42.3367 82.9917C39.9424 82.9917 38.0938 83.9543 36.7951 85.8716C35.9744 87.0729 35.5641 88.3736 35.5641 89.7817C35.5641 92.1485 36.5401 94.0021 38.4882 95.3386C39.6874 96.162 40.9702 96.5718 42.3367 96.5718C44.2171 96.5718 45.8305 95.9114 47.1611 94.5908C48.4957 93.2702 49.161 91.6672 49.161 89.7817" fill="#0630B8"/>
<path d="M112.242 102.666H105.314V89.734C105.314 87.8605 104.656 86.2654 103.338 84.9567C102.019 83.648 100.422 82.9917 98.5412 82.9917C96.0074 82.9917 94.0753 84.0657 92.7407 86.2137V102.674H85.8127V89.7419C85.8127 87.9042 85.1434 86.3211 83.8048 84.9885C82.4623 83.656 80.8647 82.9957 79.0122 82.9957C77.1597 82.9957 75.5104 83.652 74.1718 84.9607C72.8332 86.2733 72.16 87.8644 72.16 89.738V102.67H65.232V89.73C65.232 85.9114 66.5666 82.6775 69.2318 80.0402C71.901 77.399 75.1518 76.0744 78.9843 76.0744C82.8168 76.0744 86.0318 77.4229 88.7369 80.1237C91.4379 77.4229 94.6888 76.0744 98.4894 76.0744C102.29 76.0744 105.573 77.395 108.242 80.0402C110.911 82.6814 112.246 85.9114 112.246 89.73V102.67L112.242 102.666Z" fill="#0630B8"/>
<path d="M192.951 89.7261C192.951 93.5447 191.624 96.7866 188.975 99.4477C186.322 102.109 183.079 103.433 179.247 103.433C175.414 103.433 172.119 102.113 169.47 99.4676C166.817 96.8263 165.49 93.5765 165.49 89.7221C165.49 85.8676 166.825 82.6695 169.494 80.0323C172.163 77.3911 175.414 76.0665 179.247 76.0665C183.079 76.0665 186.322 77.3871 188.975 80.0323C191.624 82.6735 192.951 85.9034 192.951 89.7221M186.019 89.7221C186.019 87.8844 185.354 86.3012 184.019 84.9726C182.685 83.6441 181.095 82.9838 179.247 82.9838C177.398 82.9838 175.757 83.6401 174.422 84.9488C173.087 86.2575 172.418 87.8486 172.418 89.7221C172.418 91.5956 173.087 93.1946 174.422 94.5232C175.757 95.8518 177.362 96.5121 179.247 96.5121C181.131 96.5121 182.728 95.8478 184.047 94.5232C185.362 93.1946 186.023 91.5956 186.023 89.7221" fill="#0630B8"/>
<path d="M224.001 89.7181C224.001 93.5407 222.675 96.7786 220.022 99.4397C217.368 102.101 214.129 103.433 210.297 103.433C206.464 103.433 203.17 102.113 200.52 99.4675C197.867 96.8263 196.541 93.5765 196.541 89.722C196.541 85.8676 197.875 82.6695 200.54 80.0323C203.21 77.391 206.46 76.0664 210.293 76.0664C212.719 76.0664 214.978 76.6472 217.07 77.8087V62.1284H223.997V89.7181H224.001ZM217.073 89.726C217.073 87.8883 216.404 86.3052 215.07 84.9766C213.735 83.648 212.145 82.9877 210.297 82.9877C208.448 82.9877 206.807 83.6441 205.472 84.9527C204.138 86.2614 203.473 87.8525 203.473 89.726C203.473 91.5995 204.138 93.1986 205.472 94.5272C206.807 95.8557 208.417 96.516 210.297 96.516C212.177 96.516 213.775 95.8518 215.093 94.5272C216.412 93.1986 217.073 91.5995 217.073 89.726Z" fill="#0630B8"/>
<path d="M255 89.7062C255 90.3863 254.948 91.0705 254.845 91.7507H234.778C235.224 93.1867 236.045 94.3402 237.24 95.2114C238.435 96.0825 239.79 96.5161 241.295 96.5161C243.383 96.5161 245.112 95.7165 246.482 94.1055L250.689 99.6903C248.052 102.184 244.925 103.433 241.295 103.433C237.431 103.433 234.172 102.113 231.519 99.4715C228.87 96.8303 227.543 93.5805 227.543 89.726C227.543 85.8716 228.878 82.6735 231.547 80.0362C234.216 77.395 237.463 76.0704 241.295 76.0704C245.128 76.0704 248.371 77.391 251.024 80.0283C253.673 82.6655 255.004 85.8955 255.004 89.7062M247.255 86.5717C245.988 84.185 244.004 82.9877 241.299 82.9877C238.594 82.9877 236.563 84.185 235.296 86.5717H247.255Z" fill="#0630B8"/>
<path d="M157.642 94.1573C156.307 95.7285 154.614 96.5161 152.563 96.5161C150.682 96.5161 149.073 95.8518 147.742 94.5272C146.407 93.1986 145.738 91.5996 145.738 89.726C145.738 87.8525 146.407 86.2654 147.742 84.9527C149.077 83.6441 150.682 82.9877 152.563 82.9877C154.547 82.9877 156.208 83.7077 157.542 85.1397L161.702 79.5868C159.1 77.2439 156.056 76.0704 152.567 76.0704C148.734 76.0704 145.483 77.395 142.818 80.0362C141.436 81.4046 140.416 82.9281 139.75 84.6107L148.949 103.004C150.093 103.29 151.296 103.437 152.567 103.437C156.228 103.437 159.391 102.153 162.06 99.5908L157.646 94.1612L157.642 94.1573Z" fill="#0630B8"/>
<path d="M132.858 76.4364C131.807 76.1897 130.484 76.0704 129.321 76.0704C126.859 76.0704 125.002 76.6512 122.277 77.8127V61.9454H115.927V89.7181C115.927 93.5725 117.182 96.8223 119.831 99.4635C122.48 102.109 125.703 103.433 129.572 103.433C133.44 103.433 136.627 102.105 139.276 99.4437C140.579 98.139 141.547 96.695 142.208 95.1119L132.854 76.4364H132.858ZM134.332 94.5272C133.014 95.8557 131.412 96.516 129.536 96.516C127.659 96.516 126.046 95.8557 124.711 94.5272C123.377 93.1986 122.711 91.5995 122.711 89.726C122.711 87.8525 123.377 86.2654 124.711 84.9527C126.046 83.644 127.655 82.9877 129.536 82.9877C131.416 82.9877 132.974 83.652 134.308 84.9766C135.643 86.3052 136.312 87.8883 136.312 89.726C136.312 91.5637 135.651 93.1986 134.336 94.5272" fill="#0630B8"/>
<path d="M115.369 0.556885C113.776 0.186954 112.102 0 110.341 0C104.593 0 99.7164 1.98092 95.7126 5.94673C91.7088 9.91255 89.7089 14.7574 89.7089 20.4854C89.7089 26.2134 91.6969 31.1418 95.6768 35.1036C99.6527 39.0694 104.541 41.0503 110.341 41.0503C116.142 41.0503 120.954 39.0575 124.93 35.0638C126.898 33.0949 128.372 30.9071 129.364 28.5165L115.369 0.556885ZM117.544 27.6851C115.568 29.674 113.166 30.6724 110.345 30.6724C107.525 30.6724 105.111 29.678 103.107 27.6851C101.107 25.6923 100.103 23.2897 100.103 20.4814C100.103 17.6731 101.103 15.2865 103.107 13.3215C105.107 11.3565 107.521 10.374 110.345 10.374C113.17 10.374 115.505 11.3644 117.504 13.3573C119.504 15.3501 120.504 17.7248 120.504 20.4814C120.504 23.238 119.516 25.6923 117.54 27.6851" fill="#5980FF"/>
<path d="M159.459 5.94673C155.479 1.9849 150.618 0 144.87 0C139.121 0 134.241 1.98092 130.241 5.94673C128.149 8.01914 126.608 10.3382 125.608 12.8919L139.38 40.3821C141.109 40.8276 142.938 41.0503 144.874 41.0503C150.622 41.0503 155.483 39.0575 159.463 35.0638C163.439 31.0781 165.43 26.2173 165.43 20.4854C165.43 14.7535 163.439 9.91255 159.463 5.94673M152.073 27.6891C150.097 29.678 147.694 30.6764 144.874 30.6764C142.053 30.6764 139.635 29.6819 137.635 27.6891C135.631 25.6962 134.631 23.2937 134.631 20.4854C134.631 17.6771 135.631 15.2905 137.635 13.3255C139.635 11.3604 142.049 10.3779 144.874 10.3779C147.698 10.3779 150.029 11.3684 152.033 13.3613C154.033 15.3541 155.033 17.7288 155.033 20.4854C155.033 23.242 154.045 25.6962 152.069 27.6891" fill="#5980FF"/>
<path d="M30.1739 142.865L25.931 136.91C25.453 136.962 24.9749 136.99 24.4451 136.99H19.4612V142.865H17.5012V124.336H24.449C29.1699 124.336 32.0304 126.719 32.0304 130.689C32.0304 133.601 30.4926 135.641 27.7875 136.512L32.3212 142.865H30.1739ZM30.0663 130.689C30.0663 127.725 28.1062 126.031 24.3933 126.031H19.4612V135.319H24.3933C28.1023 135.319 30.0663 133.601 30.0663 130.685" fill="#0630B8"/>
<path d="M48.4121 136.484H36.7473C36.9584 139.396 39.1854 141.329 42.2331 141.329C43.9302 141.329 45.4441 140.721 46.4998 139.504L47.5595 140.721C46.3165 142.2 44.3804 142.996 42.1773 142.996C37.8309 142.996 34.8589 140.033 34.8589 135.904C34.8589 131.775 37.7472 128.835 41.6713 128.835C45.5955 128.835 48.432 131.719 48.432 135.904C48.432 136.063 48.4041 136.274 48.4041 136.484M36.7393 135.084H46.6273C46.3883 132.36 44.4003 130.45 41.6674 130.45C38.9344 130.45 36.9744 132.356 36.7393 135.084Z" fill="#0630B8"/>
<path d="M72.4827 128.943L67.208 142.865H65.4312L61.033 131.457L56.6348 142.865H54.854L49.6072 128.943H51.4079L55.7823 140.776L60.2641 128.943H61.8816L66.3355 140.776L70.7616 128.943H72.4827Z" fill="#0630B8"/>
<path d="M82.3468 128.835V130.661C82.1874 130.661 82.028 130.637 81.8966 130.637C78.9804 130.637 77.2036 132.487 77.2036 135.768V142.861H75.3232V128.939H77.1239V131.663C77.9964 129.81 79.7772 128.831 82.3468 128.831" fill="#0630B8"/>
<path d="M85.3147 124.551C85.3147 123.839 85.9243 123.231 86.6932 123.231C87.462 123.231 88.0716 123.811 88.0716 124.527C88.0716 125.295 87.4899 125.908 86.6932 125.908C85.8964 125.908 85.3147 125.295 85.3147 124.555M85.737 128.951H87.6214V142.873H85.737V128.951Z" fill="#0630B8"/>
<path d="M100.214 142.021C99.4734 142.682 98.3619 143 97.2743 143C94.6489 143 93.1909 141.516 93.1909 138.951V130.534H90.7009V128.947H93.1909V125.904H95.0752V128.947H99.3141V130.534H95.0752V138.847C95.0752 140.49 95.9238 141.389 97.4855 141.389C98.2544 141.389 99.0232 141.15 99.5571 140.677L100.218 142.025L100.214 142.021Z" fill="#0630B8"/>
<path d="M115.273 136.484H103.609C103.82 139.396 106.047 141.329 109.094 141.329C110.792 141.329 112.301 140.721 113.365 139.504L114.425 140.721C113.178 142.2 111.242 142.996 109.039 142.996C104.692 142.996 101.724 140.033 101.724 135.904C101.724 131.775 104.613 128.835 108.537 128.835C112.461 128.835 115.293 131.719 115.293 135.904C115.293 136.063 115.265 136.274 115.265 136.484M103.601 135.084H113.489C113.25 132.36 111.262 130.45 108.533 130.45C105.804 130.45 103.836 132.356 103.601 135.084Z" fill="#0630B8"/>
<path d="M132.85 136.461V142.865H130.918V136.461L123.492 124.336H125.588L131.95 134.738L138.312 124.336H140.272L132.85 136.461Z" fill="#0630B8"/>
<path d="M139.93 135.904C139.93 131.775 142.953 128.835 147.033 128.835C151.112 128.835 154.112 131.775 154.112 135.904C154.112 140.033 151.116 143 147.033 143C142.949 143 139.93 140.033 139.93 135.904ZM152.204 135.904C152.204 132.646 150.005 130.478 147.037 130.478C144.069 130.478 141.842 132.646 141.842 135.904C141.842 139.161 144.069 141.329 147.037 141.329C150.005 141.329 152.204 139.158 152.204 135.904Z" fill="#0630B8"/>
<path d="M170.522 128.943V142.865H168.721V140.327C167.741 142.021 165.936 143 163.709 143C160.156 143 157.825 141.015 157.825 137.017V128.943H159.706V136.831C159.706 139.794 161.243 141.302 163.897 141.302C166.813 141.302 168.645 139.424 168.645 136.246V128.943H170.526H170.522Z" fill="#0630B8"/>
<path d="M182.824 128.835V130.661C182.665 130.661 182.505 130.637 182.374 130.637C179.458 130.637 177.681 132.487 177.681 135.768V142.861H175.801V128.939H177.605V131.663C178.482 129.81 180.255 128.831 182.828 128.831" fill="#0630B8"/>
<path d="M193.776 124.336H195.736V141.174H206.126V142.865H193.776V124.336Z" fill="#0630B8"/>
<path d="M208.568 124.551C208.568 123.839 209.177 123.231 209.946 123.231C210.715 123.231 211.325 123.811 211.325 124.527C211.325 125.295 210.743 125.908 209.946 125.908C209.15 125.908 208.568 125.295 208.568 124.555M208.99 128.951H210.871V142.873H208.99V128.951Z" fill="#0630B8"/>
<path d="M218.269 127.304V128.943H222.563V130.53H218.32V142.865H216.44V130.53H213.95V128.943H216.44V127.224C216.44 124.738 217.926 123.095 220.655 123.095C221.691 123.095 222.751 123.386 223.44 123.97L222.802 125.375C222.272 124.925 221.531 124.686 220.735 124.686C219.117 124.686 218.269 125.585 218.269 127.308" fill="#0630B8"/>
<path d="M237.013 136.484H225.348C225.559 139.396 227.786 141.329 230.834 141.329C232.531 141.329 234.045 140.721 235.105 139.504L236.168 140.721C234.921 142.2 232.985 142.996 230.786 142.996C226.44 142.996 223.472 140.033 223.472 135.904C223.472 131.775 226.36 128.835 230.284 128.835C234.208 128.835 237.045 131.719 237.045 135.904C237.045 136.063 237.017 136.274 237.017 136.484M225.352 135.084H235.24C235.001 132.36 233.013 130.45 230.284 130.45C227.555 130.45 225.591 132.356 225.352 135.084Z" fill="#0630B8"/>
</g>
<defs>
<clipPath id="clip0_3_31">
<rect width="255" height="143" fill="white"/>
</clipPath>
</defs>
</svg>
